<?xml version="1.0" encoding="UTF-8" standalone="no"?>
<svg
   xmlns:dc="http://purl.org/dc/elements/1.1/"
   xmlns:cc="http://creativecommons.org/ns#"
   xmlns:rdf="http://www.w3.org/1999/02/22-rdf-syntax-ns#"
   xmlns:svg="http://www.w3.org/2000/svg"
   xmlns="http://www.w3.org/2000/svg"
   xmlns:sodipodi="http://sodipodi.sourceforge.net/DTD/sodipodi-0.dtd"
   xmlns:inkscape="http://www.inkscape.org/namespaces/inkscape"
   inkscape:version="1.0beta1 (32d4812, 2019-09-19)"
   inkscape:export-ydpi="34.133335"
   inkscape:export-xdpi="34.133335"
   inkscape:export-filename="/Users/heinz.ekker/coden/Hinkskalle/frontend/public/favicon.ico.png"
   sodipodi:docname="noun_Bucket List_29962.svg"
   id="svg853"
   xml:space="preserve"
   enable-background="new 0 0 100 100"
   viewBox="0 0 100 125"
   y="0px"
   x="0px"
   version="1.1">
  <metadata
     id="metadata859">
    <rdf:RDF>
      <cc:Work
         rdf:about="">
        <dc:format>image/svg+xml</dc:format>
        <dc:type
           rdf:resource="http://purl.org/dc/dcmitype/StillImage" />
      </cc:Work>
    </rdf:RDF>
  </metadata>
  <defs
     id="defs857" />
  <sodipodi:namedview
     inkscape:current-layer="svg853"
     inkscape:window-maximized="0"
     inkscape:window-y="23"
     inkscape:window-x="0"
     inkscape:cy="46.616896"
     inkscape:cx="52.411053"
     inkscape:zoom="0.5"
     showgrid="false"
     id="namedview855"
     inkscape:window-height="1209"
     inkscape:window-width="1600"
     inkscape:pageshadow="2"
     inkscape:pageopacity="0"
     guidetolerance="10"
     gridtolerance="10"
     objecttolerance="10"
     borderopacity="1"
     inkscape:document-rotation="0"
     bordercolor="#666666"
     pagecolor="#ffffff" />
  <g
     id="g847">
    <path
       id="path833"
       d="M86.534,52.297c-3.892-7.693-8.372-14.81-10.664-18.324c2.619-0.772,4.919-1.654,6.899-2.621l-1.516,6.984   c-0.3,1.38,0.576,2.742,1.956,3.041c0.183,0.041,0.366,0.059,0.545,0.059c1.178,0,2.235-0.817,2.496-2.014l2.66-12.256   c1.912-1.931,2.886-3.993,2.886-6.051C91.795,13.106,77.147,5,49.154,5C21.158,5,6.512,13.106,6.512,21.115   c0,2.041,0.957,4.088,2.839,6.007c0.006,0.136,0.018,0.274,0.047,0.413l12.498,57.202c0.103,0.46,0.328,0.886,0.656,1.226   c4.131,4.291,14.076,8.902,26.273,9.034C48.867,95,48.908,95,48.949,95h0.41c0.041,0,0.081,0,0.12-0.003   c12.199-0.132,22.146-4.743,26.273-9.034c0.33-0.341,0.557-0.766,0.656-1.23l1.33-6.119c2.455,2.546,4.778,3.498,6.467,3.816   c0.52,0.098,1.039,0.145,1.548,0.145c1.564,0,3.057-0.454,4.312-1.333C95.589,77.375,94.435,67.909,86.534,52.297z M21.628,13.95   c7.314-2.474,17.089-3.836,27.526-3.836c22.907,0,37.528,6.516,37.528,11.001c0,0.775-0.52,1.781-1.739,2.878   c-0.064,0.053-0.13,0.104-0.19,0.163c-1.551,1.334-4.126,2.789-8.074,4.124c-7.314,2.476-17.089,3.838-27.524,3.838   c-22.91,0-37.529-6.517-37.529-11.002C11.625,19.37,14.244,16.446,21.628,13.95z M87.134,77.053   c-0.542,0.379-1.21,0.498-1.983,0.352c-1.059-0.199-3.205-1.087-5.673-4.789c-0.103-0.154-0.22-0.292-0.347-0.415l2.815-12.965   c0.302-1.38-0.574-2.741-1.954-3.041c-1.383-0.302-2.742,0.576-3.041,1.956l-5.373,24.74c-3.202,2.87-11.534,6.945-22.424,6.996   c-10.893-0.051-19.225-4.126-22.427-6.998L15.457,31.313c7.116,3.498,18.412,5.917,33.697,5.917c8.351,0,15.504-0.725,21.445-1.951   C85.762,57.636,91.01,74.34,87.134,77.053z" />
    <path
       id="path835"
       d="M31.06,54.077c0.091,0.01,0.179,0.013,0.267,0.013c0.617,0,1.216-0.223,1.685-0.631l8.183-7.159   c1.062-0.93,1.169-2.546,0.24-3.609c-0.932-1.061-2.546-1.169-3.609-0.24l-6.105,5.344l-1.415-1.884   c-0.847-1.131-2.449-1.359-3.58-0.513c-1.128,0.847-1.358,2.449-0.51,3.58l3.067,4.09C29.709,53.637,30.354,54.002,31.06,54.077z" />
    <path
       id="path837"
       d="M32.084,68.396c0.089,0.009,0.177,0.015,0.265,0.015c0.618,0,1.216-0.224,1.685-0.633l8.183-7.16   c1.062-0.929,1.169-2.544,0.24-3.608c-0.93-1.062-2.546-1.17-3.609-0.24l-6.105,5.344l-1.415-1.885   c-0.847-1.129-2.449-1.359-3.579-0.513c-1.129,0.848-1.359,2.451-0.511,3.58l3.067,4.091   C30.732,67.956,31.376,68.322,32.084,68.396z" />
    <path
       id="path839"
       d="M40.894,70.065l-6.107,5.342l-1.414-1.885c-0.848-1.131-2.451-1.359-3.58-0.511s-1.358,2.451-0.511,3.579l3.067,4.093   c0.428,0.568,1.072,0.935,1.781,1.008c0.088,0.009,0.176,0.015,0.265,0.015c0.617,0,1.216-0.223,1.683-0.633l8.183-7.16   c1.063-0.929,1.169-2.544,0.24-3.606C43.571,69.242,41.957,69.134,40.894,70.065z" />
    <path
       id="path841"
       d="M64.053,58.361c-7.513,3.287-14.194,1.865-14.319,1.866c-1.412,0.001-2.555,1.146-2.555,2.558s1.146,2.555,2.558,2.555   c0.313,0,7.793,1.459,16.365-2.292c1.295-0.567,1.884-2.074,1.318-3.368C66.854,58.385,65.346,57.796,64.053,58.361z" />
    <path
       id="path843"
       d="M65.075,45.321c-7.56,3.308-15.265,1.866-15.341,1.866c-1.412,0.003-2.555,1.146-2.555,2.558s1.146,2.556,2.558,2.556   c0.356,0,8.815,1.458,17.388-2.294c1.295-0.567,1.884-2.074,1.318-3.368S66.369,44.754,65.075,45.321z" />
    <path
       id="path845"
       d="M63.029,72.201c-7.485,3.275-13.184,1.865-13.298,1.866c-1.409,0.003-2.552,1.146-2.552,2.556   c0,1.414,1.146,2.556,2.558,2.556c0.272,0,6.769,1.459,15.343-2.292c1.293-0.567,1.884-2.074,1.318-3.368   C65.831,72.225,64.324,71.636,63.029,72.201z" />
  </g>
</svg>
